<svg width="1152" height="700" viewBox="0 0 1152 700" fill="none" xmlns="http://www.w3.org/2000/svg">
<path d="M645.635 222.627C624.705 256.325 627.89 300.512 655.873 331.309C690.225 369.024 749.375 372.149 787.823 338.227C826.27 304.529 829.228 246.506 794.875 208.791C766.665 177.994 722.075 170.406 685.675 187.144L425.87 -96.7245C420.637 -102.304 413.357 -105.428 405.85 -105.428H-31.1784C-46.1935 -105.428 -58.251 -93.6001 -58.251 -78.8711V984.072C-58.251 998.801 -46.1935 1010.63 -31.1784 1010.63C-16.1634 1010.63 -4.10588 998.801 -4.10588 984.072V-52.5375H393.792L645.635 222.627ZM694.548 236.463C713.43 219.726 742.778 221.288 759.84 239.811C776.903 258.334 775.31 287.122 756.428 303.86C737.545 320.597 708.198 319.035 691.135 300.512C674.073 281.766 675.438 253.201 694.548 236.463Z" fill="url(#paint0_linear)" fill-opacity="0.15"/>
<path d="M376.955 153.445C397.203 119.524 393.79 75.337 365.125 44.7632C330.09 7.49437 271.168 5.2627 233.175 39.6304C195.183 73.998 192.908 131.798 227.943 169.067C256.608 199.418 301.198 206.559 337.37 189.375L745.732 623.434C750.965 629.014 758.245 631.915 765.525 631.915C771.44 631.915 777.355 630.129 782.36 626.112L921.135 517.877C927.505 512.744 931.372 505.156 931.372 497.122V-78.8711C931.372 -93.6001 919.315 -105.428 904.3 -105.428C889.285 -105.428 877.227 -93.6001 877.227 -78.8711V484.402L768.255 569.428L376.955 153.445ZM327.815 140.279C309.16 157.239 279.813 156.123 262.523 137.601C245.233 119.301 246.37 90.5124 265.253 73.5517C283.908 56.591 313.255 57.7068 330.545 76.2297C347.835 94.7525 346.698 123.318 327.815 140.279ZM644.04 751.532C623.792 785.453 627.205 829.64 655.87 860.214C690.905 897.483 749.827 899.715 787.82 865.347C825.812 830.979 828.087 773.179 793.052 735.91C764.387 705.56 719.797 698.418 683.625 715.602L275.263 281.543C265.708 271.277 249.783 270.162 238.635 278.865L99.8601 387.101C93.4901 392.234 89.6226 399.821 89.6226 407.855V984.072C89.6226 998.801 101.68 1010.63 116.695 1010.63C131.71 1010.63 143.768 998.801 143.768 984.072V420.576L252.74 335.549L644.04 751.532ZM693.18 764.699C711.835 747.738 741.182 748.854 758.472 767.377C775.762 785.677 774.625 814.465 755.97 831.426C737.315 848.386 707.967 847.271 690.677 828.748C673.16 810.448 674.297 781.66 693.18 764.699Z" fill="url(#paint1_linear)" fill-opacity="0.15"/>
<path d="M1052.18 -105.428C1037.16 -105.428 1025.1 -93.6001 1025.1 -78.8711V957.515H627.433L375.363 682.35C396.293 648.652 393.108 604.465 365.125 573.668C330.773 535.953 271.622 532.829 233.175 566.75C194.727 600.671 191.542 658.472 226.122 696.187C254.332 726.984 298.923 734.571 335.323 717.834L595.355 1001.7C600.588 1007.28 607.868 1010.41 615.375 1010.41H1052.4C1067.42 1010.41 1079.48 998.578 1079.48 983.849V-78.8711C1079.25 -93.6001 1067.19 -105.428 1052.18 -105.428ZM326.45 668.514C307.568 685.252 278.22 683.689 261.157 665.167C244.095 646.644 245.687 617.855 264.57 601.118C283.452 584.38 312.8 585.942 329.863 604.465C346.925 623.211 345.56 651.777 326.45 668.514Z" fill="url(#paint2_linear)" fill-opacity="0.15"/>
<defs>
<linearGradient id="paint0_linear" x1="380.264" y1="-105.428" x2="380.264" y2="1010.63" gradientUnits="userSpaceOnUse">
<stop stop-color="#26265E"/>
<stop offset="1" stop-color="#6666FF"/>
</linearGradient>
<linearGradient id="paint1_linear" x1="510.497" y1="-105.428" x2="510.497" y2="1010.63" gradientUnits="userSpaceOnUse">
<stop stop-color="#26265E"/>
<stop offset="1" stop-color="#6666FF"/>
</linearGradient>
<linearGradient id="paint2_linear" x1="640.802" y1="-105.428" x2="640.802" y2="1010.41" gradientUnits="userSpaceOnUse">
<stop stop-color="#26265E"/>
<stop offset="1" stop-color="#6666FF"/>
</linearGradient>
</defs>
</svg>
